<svg width="26" height="28" viewBox="0 0 26 28" fill="none" xmlns="http://www.w3.org/2000/svg">
<path d="M1 15.5839C1 16.2519 1.264 16.8725 1.736 17.4067C2.692 18.5006 4.461 19.2296 6.494 19.2296C8.527 19.2296 10.296 18.5006 11.252 17.4067C11.724 16.8725 11.988 16.253 11.988 15.5839" stroke="white" stroke-miterlimit="10" stroke-linecap="round" stroke-linejoin="round"/>
<path d="M11.9879 19.2305C11.9879 19.8986 11.7239 20.5192 11.252 21.0535" stroke="white" stroke-miterlimit="10" stroke-linecap="round" stroke-linejoin="round"/>
<path d="M1.73599 21.0535C1.264 20.5192 1 19.8986 1 19.2305" stroke="white" stroke-miterlimit="10" stroke-linecap="round" stroke-linejoin="round"/>
<path d="M1 8.29254C1 8.9606 1.264 9.5811 1.736 10.1153C2.692 11.2092 4.461 11.9381 6.494 11.9381C8.527 11.9381 10.296 11.2092 11.252 10.1153C11.724 9.57999 11.988 8.9606 11.988 8.29254" stroke="white" stroke-miterlimit="10" stroke-linecap="round" stroke-linejoin="round"/>
<path d="M6.494 8.2915C9.52826 8.2915 11.988 6.65925 11.988 4.64575C11.988 2.63226 9.52826 1 6.494 1C3.45975 1 1 2.63226 1 4.64575C1 6.65925 3.45975 8.2915 6.494 8.2915Z" stroke="white" stroke-miterlimit="10" stroke-linecap="round" stroke-linejoin="round"/>
<path d="M1 11.9381C1 12.6062 1.264 13.2267 1.736 13.761C2.692 14.8549 4.461 15.5839 6.494 15.5839C8.527 15.5839 10.296 14.8549 11.252 13.761C11.724 13.2267 11.988 12.6062 11.988 11.9381" stroke="white" stroke-miterlimit="10" stroke-linecap="round" stroke-linejoin="round"/>
<path d="M1 22.8765C1 24.8938 3.461 26.5219 6.494 26.5219C9.52701 26.5219 11.988 24.8938 11.988 22.8765" stroke="white" stroke-miterlimit="10" stroke-linecap="round" stroke-linejoin="round"/>
<path d="M1.73596 21.0534C2.69196 22.1468 4.46097 22.8753 6.49397 22.8753C8.52698 22.8753 10.296 22.1468 11.252 21.0534" stroke="white" stroke-miterlimit="10" stroke-linecap="round" stroke-linejoin="round"/>
<path d="M11.988 22.8763V19.2307V15.5839V11.9382V8.29253V4.64575" stroke="white" stroke-miterlimit="10" stroke-linecap="round" stroke-linejoin="round"/>
<path d="M1 22.8763V19.2307V15.5839V11.9382V8.29253V4.64575" stroke="white" stroke-miterlimit="10" stroke-linecap="round" stroke-linejoin="round"/>
<path d="M14.186 22.8765C14.186 23.5445 14.45 24.165 14.922 24.6992C15.878 25.793 17.647 26.5219 19.68 26.5219C21.713 26.5219 23.482 25.793 24.438 24.6992C24.91 24.165 25.174 23.5445 25.174 22.8765" stroke="white" stroke-miterlimit="10" stroke-linecap="round" stroke-linejoin="round"/>
<path d="M14.186 15.5839C14.186 16.2519 14.45 16.8725 14.922 17.4067C15.878 18.5006 17.647 19.2296 19.68 19.2296C21.713 19.2296 23.482 18.5006 24.438 17.4067C24.91 16.8725 25.174 16.2519 25.174 15.5839" stroke="white" stroke-miterlimit="10" stroke-linecap="round" stroke-linejoin="round"/>
<path d="M19.68 15.5839C22.7143 15.5839 25.174 13.9516 25.174 11.9382C25.174 9.92476 22.7143 8.29254 19.68 8.29254C16.6458 8.29254 14.186 9.92476 14.186 11.9382C14.186 13.9516 16.6458 15.5839 19.68 15.5839Z" stroke="white" stroke-miterlimit="10" stroke-linecap="round" stroke-linejoin="round"/>
<path d="M14.186 19.2305C14.186 19.8986 14.45 20.5192 14.922 21.0534C15.878 22.1474 17.647 22.8763 19.68 22.8763C21.713 22.8763 23.482 22.1474 24.438 21.0534C24.91 20.5192 25.174 19.8986 25.174 19.2305" stroke="white" stroke-miterlimit="10" stroke-linecap="round" stroke-linejoin="round"/>
<path d="M25.1741 11.9381V15.5838V19.2306V22.8762" stroke="white" stroke-miterlimit="10" stroke-linecap="round" stroke-linejoin="round"/>
<path d="M14.186 11.9381V15.5838V19.2306V22.8762" stroke="white" stroke-miterlimit="10" stroke-linecap="round" stroke-linejoin="round"/>
</svg>
